<svg width="568" height="140" viewBox="0 0 568 140" fill="none" xmlns="http://www.w3.org/2000/svg">
<path d="M10 10H50L10 50V90L90 10H130L10 130H50L130 50V90L90 130H130" stroke="#008700" stroke-width="18" stroke-linecap="round" stroke-linejoin="round"/>
<path d="M222.496 46.3545H180.687V66.376H213.729V83.0605H180.687V118H158.964V28.6885H222.496V46.3545Z" fill="white"/>
<path d="M296.824 46.3545H255.015V66.376H288.057V83.0605H255.015V118H233.292V28.6885H296.824V46.3545Z" fill="white"/>
<path d="M335.512 118L318.777 62.5674V118H305.43V50.0166H330.232L342.136 90.707L354.687 50.0166H379.539V118H363.502V62.5674L346.419 118H335.512Z" fill="white"/>
<path d="M409.272 92.749V118H393.086V50.0166H419.881C425.857 50.0167 430.431 50.6558 433.602 51.9341C436.773 53.2125 439.603 55.4952 442.094 58.7822C444.584 62.0694 445.829 66.1036 445.829 70.8848C445.829 74.2383 445.165 77.5088 443.837 80.6963C442.509 83.8838 440.633 86.3907 438.209 88.2168C435.785 90.043 433.436 91.2549 431.162 91.8525C428.887 92.4502 425.326 92.749 420.479 92.749H409.272ZM408.725 80.3975H419.084C423.035 80.3975 425.808 79.4844 427.401 77.6582C428.995 75.8321 429.792 73.7403 429.792 71.3828C429.792 68.627 428.904 66.4356 427.127 64.8086C425.351 63.1817 422.653 62.3682 419.034 62.3682H408.725V80.3975Z" fill="white"/>
<path d="M503.254 62.9658H470.831V76.9111H496.331V89.7109H470.831V104.553H503.254V118H454.645V50.0166H503.254V62.9658Z" fill="white"/>
<path d="M565.809 81.6426V118H558.537C558.006 115.443 557.242 112.837 556.246 110.181C551.398 116.091 545.223 119.046 537.719 119.046C528.854 119.046 521.956 115.875 517.025 109.533C512.094 103.191 509.629 94.9903 509.629 84.9297C509.629 74.1055 512.26 65.4063 517.523 58.832C522.786 52.2579 529.933 48.9708 538.964 48.9707C546.534 48.9708 552.643 51.0958 557.292 55.3457C561.94 59.5958 564.779 65.2569 565.809 72.3291L550.668 74.3213C549.439 66.087 545.538 61.9698 538.964 61.9697C534.647 61.9698 531.385 63.9205 529.177 67.8218C526.969 71.7232 525.865 77.293 525.865 84.5312C525.865 91.5039 527.061 96.833 529.451 100.519C531.842 104.204 535.245 106.047 539.661 106.047C542.517 106.047 545.065 105.117 547.306 103.258C549.547 101.398 550.668 98.4268 550.668 94.3428H537.868V81.6426H565.809Z" fill="white"/>
</svg>
