<svg width="202" height="62" viewBox="0 0 202 62" fill="none" xmlns="http://www.w3.org/2000/svg">
<g clip-path="url(#clip0_2_5)">
<path d="M0.024 13.48H11.736L18.2 36.04H16.632L23.064 13.48H33.432L21.144 50.088C19.6507 54.3973 17.912 57.3627 15.928 58.984C13.9653 60.6053 11.672 61.416 9.048 61.416C7.448 61.416 5.83733 61.2667 4.216 60.968C2.616 60.6907 1.016 60.2213 -0.584 59.56V50.76C0.610667 51.3147 1.77333 51.7307 2.904 52.008C4.056 52.3067 5.176 52.456 6.264 52.456C6.98933 52.456 7.672 52.3173 8.312 52.04C8.952 51.784 9.53867 51.3253 10.072 50.664C10.6053 50.0027 11.0533 49.096 11.416 47.944L12.44 45L0.024 13.48ZM59.8925 45L58.5805 36.584V24.776C58.5805 23.1973 58.2925 21.9707 57.7165 21.096C57.1405 20.2213 55.9138 19.784 54.0365 19.784C52.9272 19.784 52.0205 19.9547 51.3165 20.296C50.6338 20.616 50.1218 21.0533 49.7805 21.608C49.4605 22.1413 49.3005 22.728 49.3005 23.368H38.2285C38.2285 20.8933 38.8152 18.856 39.9885 17.256C41.1618 15.6347 42.9218 14.4293 45.2685 13.64C47.6152 12.8507 50.5378 12.456 54.0365 12.456C57.0872 12.456 59.7112 12.9253 61.9085 13.864C64.1272 14.8027 65.8338 16.2107 67.0285 18.088C68.2232 19.9653 68.8205 22.3227 68.8205 25.16V45H59.8925ZM49.9725 46.024C47.1565 46.024 44.7778 45.5547 42.8365 44.616C40.9165 43.656 39.4658 42.3653 38.4845 40.744C37.5032 39.1227 37.0125 37.3307 37.0125 35.368C37.0125 33.512 37.5245 31.912 38.5485 30.568C39.5725 29.2027 41.0872 28.1467 43.0925 27.4C45.1192 26.6533 47.6045 26.28 50.5485 26.28C52.3405 26.28 53.9192 26.376 55.2845 26.568C56.6712 26.76 58.0898 26.9947 59.5405 27.272V33.032C58.4738 32.7973 57.3645 32.616 56.2125 32.488C55.0818 32.36 53.9725 32.296 52.8845 32.296C51.3698 32.296 50.1645 32.5413 49.2685 33.032C48.3938 33.5013 47.9565 34.28 47.9565 35.368C47.9565 36.1573 48.3512 36.8507 49.1405 37.448C49.9298 38.024 51.1778 38.312 52.8845 38.312C54.3352 38.312 55.4765 38.024 56.3085 37.448C57.1405 36.872 57.7272 36.1467 58.0685 35.272C58.4098 34.3973 58.5805 33.5333 58.5805 32.68H60.9805C60.9805 35.112 60.5965 37.3413 59.8285 39.368C59.0605 41.3947 57.8658 43.016 56.2445 44.232C54.6232 45.4267 52.5325 46.024 49.9725 46.024ZM149.89 13.288H160.13V45H149.89V13.288ZM128.994 13.288H139.234V32.36C139.234 33.8107 139.596 34.888 140.322 35.592C141.068 36.2747 142.018 36.616 143.17 36.616C144.215 36.616 145.25 36.36 146.274 35.848C147.319 35.336 148.183 34.4613 148.866 33.224C149.548 31.9867 149.89 30.2693 149.89 28.072H152.13C152.13 32.2533 151.65 35.6347 150.69 38.216C149.73 40.776 148.418 42.6427 146.754 43.816C145.111 44.9893 143.244 45.576 141.154 45.576C139.042 45.576 137.058 45.2133 135.202 44.488C133.346 43.7627 131.842 42.5253 130.69 40.776C129.559 39.0267 128.994 36.616 128.994 33.544V13.288ZM191.452 13.288H201.692V45H191.452V13.288ZM170.556 13.288H180.796V32.36C180.796 33.8107 181.159 34.888 181.884 35.592C182.631 36.2747 183.58 36.616 184.732 36.616C185.777 36.616 186.812 36.36 187.836 35.848C188.881 35.336 189.745 34.4613 190.428 33.224C191.111 31.9867 191.452 30.2693 191.452 28.072H193.692C193.692 32.2533 193.212 35.6347 192.252 38.216C191.292 40.776 189.98 42.6427 188.316 43.816C186.673 44.9893 184.807 45.576 182.716 45.576C180.604 45.576 178.62 45.2133 176.764 44.488C174.908 43.7627 173.404 42.5253 172.252 40.776C171.121 39.0267 170.556 36.616 170.556 33.544V13.288Z" fill="black"/>
<path d="M80.8905 45V10.728C80.8905 8.25333 81.3812 6.248 82.3625 4.712C83.3438 3.176 84.6238 2.056 86.2025 1.352C87.7812 0.626663 89.4452 0.263996 91.1945 0.263996C92.3892 0.263996 93.6478 0.34933 94.9705 0.519997C96.2932 0.669332 97.5625 0.829332 98.7785 0.999996L96.7625 8.776C96.3358 8.66933 95.8665 8.56266 95.3545 8.456C94.8638 8.34933 94.3625 8.296 93.8505 8.296C93.3385 8.296 92.8905 8.392 92.5065 8.584C92.1225 8.776 91.8238 9.07467 91.6105 9.48C91.3972 9.864 91.2905 10.344 91.2905 10.92V45H80.8905ZM76.6985 20.104V13.48H96.3145V20.104H76.6985ZM106.078 45V10.728C106.078 8.25333 106.569 6.248 107.55 4.712C108.531 3.176 109.811 2.056 111.39 1.352C112.969 0.626663 114.633 0.263996 116.382 0.263996C117.577 0.263996 118.835 0.34933 120.158 0.519997C121.481 0.669332 122.75 0.829332 123.966 0.999996L121.95 8.776C121.523 8.66933 121.054 8.56266 120.542 8.456C120.051 8.34933 119.55 8.296 119.038 8.296C118.526 8.296 118.078 8.392 117.694 8.584C117.31 8.776 117.011 9.07467 116.798 9.48C116.585 9.864 116.478 10.344 116.478 10.92V45H106.078ZM101.886 20.104V13.48H121.502V20.104H101.886Z" fill="url(#paint0_linear_2_5)"/>
</g>
<defs>
<linearGradient id="paint0_linear_2_5" x1="73" y1="1.5" x2="122" y2="48" gradientUnits="userSpaceOnUse">
<stop stop-color="#61CF68"/>
<stop offset="1" stop-color="#004B01"/>
</linearGradient>
<clipPath id="clip0_2_5">
<rect width="202" height="62" fill="white"/>
</clipPath>
</defs>
</svg>
